<?xml version="1.0" encoding="UTF-8" standalone="no"?>
<svg width="771px" height="936px" viewBox="0 0 771 936" version="1.1" xmlns="http://www.w3.org/2000/svg" xmlns:xlink="http://www.w3.org/1999/xlink" xmlns:sketch="http://www.bohemiancoding.com/sketch/ns">
    <title>diamond</title>
    <description>Created with Sketch (http://www.bohemiancoding.com/sketch)</description>
    <defs>
        <path d="M219,39 L219,400 L0,219.5 L219,39 Z M219,400 L219,39 L438,219.5 L219,400 Z" id="path-1"></path>
        <path d="M219,440 L219,801 L0,620.5 L219,440 Z M219,801 L219,440 L438,620.5 L219,801 Z" id="path-2"></path>
    </defs>
    <g id="Page-1" stroke="none" stroke-width="1" fill="none" fill-rule="evenodd" sketch:type="MSPage">
        <g id="Diagram" sketch:type="MSLayerGroup" transform="translate(40.000000, 45.000000)">
            <g id="Line-+-Triangle-1-+-Triangle-1" transform="translate(84.000000, 3.000000)">
                <path d="M219.5,0.5 L219.5,835.5" id="Line" stroke="#D8D8D8" stroke-width="3" stroke-linecap="square" sketch:type="MSShapeGroup"></path>
                <g id="Triangle-1">
                    <use fill="#D8D8D8" fill-rule="evenodd" sketch:type="MSShapeGroup" xlink:href="#path-1"></use>
                    <use fill="none" xlink:href="#path-1"></use>
                </g>
                <g id="Triangle-1">
                    <use fill="#D8D8D8" fill-rule="evenodd" sketch:type="MSShapeGroup" xlink:href="#path-2"></use>
                    <use fill="none" xlink:href="#path-2"></use>
                </g>
            </g>
            <rect id="Rectangle-1" stroke="#D8D8D8" fill="#FFFFFF" sketch:type="MSShapeGroup" x="259" y="0" width="89" height="30" rx="8"></rect>
            <path d="M279.994973,406 C275.579471,406 272,409.588903 272,414.00004 L272,427.99996 C272,432.41826 275.590514,436 279.994973,436 L327.005027,436 C331.420529,436 335,432.411097 335,427.99996 L335,414.00004 C335,409.58174 331.409486,406 327.005027,406 L279.994973,406 Z M279.994973,813 C275.579471,813 272,816.588903 272,821.00004 L272,834.99996 C272,839.41826 275.590514,843 279.994973,843 L327.005027,843 C331.420529,843 335,839.411097 335,834.99996 L335,821.00004 C335,816.58174 331.409486,813 327.005027,813 L279.994973,813 Z" id="Rectangle-1" stroke="#D8D8D8" fill="#FFFFFF" sketch:type="MSShapeGroup"></path>
            <text id="Understand" sketch:type="MSTextLayer" font-family="Fira Sans OT" font-size="11" font-weight="420" sketch:alignment="middle" line-spacing="23" fill="#4A4A4A">
                <tspan x="273.5365" y="93">Understand</tspan>
                <tspan x="303" y="116"></tspan>
                <tspan x="255.513" y="139">Customer Empathy</tspan>
                <tspan x="303" y="162"></tspan>
                <tspan x="260.7105" y="185">Product Strategy</tspan>
                <tspan x="303" y="208"></tspan>
                <tspan x="281.9625" y="231">Ideation</tspan>
                <tspan x="303" y="254"></tspan>
                <tspan x="277.964" y="277">Prototype</tspan>
                <tspan x="303" y="300"></tspan>
                <tspan x="252.95" y="323">Experience Strategy</tspan>
            </text>
            <text id="Sketch-Options" sketch:type="MSTextLayer" font-family="Fira Sans OT" font-size="11" font-weight="420" sketch:alignment="middle" line-spacing="23" fill="#4A4A4A">
                <tspan x="264.8245" y="496">Sketch Options</tspan>
                <tspan x="303" y="519"></tspan>
                <tspan x="252.7905" y="542">Prototype Solutions</tspan>
                <tspan x="303" y="565"></tspan>
                <tspan x="263.268" y="588">Test Prototypes</tspan>
                <tspan x="303" y="611"></tspan>
                <tspan x="264.3625" y="634">Define Solution</tspan>
                <tspan x="303" y="657"></tspan>
                <tspan x="279.4985" y="680">User Test</tspan>
                <tspan x="303" y="703"></tspan>
                <tspan x="287.116" y="726">Refine</tspan>
                <tspan x="303" y="749"></tspan>
                <tspan x="289.954" y="772">Build</tspan>
            </text>
            <text id="Initial-Insight" fill="#4990E2" sketch:type="MSTextLayer" font-family="Fira Sans OT" font-size="11" font-weight="bold" sketch:alignment="middle">
                <tspan x="269.582" y="19">Initial Insight</tspan>
            </text>
            <text id="Plan" fill="#4990E2" sketch:type="MSTextLayer" font-family="Fira Sans OT" font-size="11" font-weight="bold" sketch:alignment="middle">
                <tspan x="292.3735" y="425">Plan</tspan>
            </text>
            <text id="Ship" fill="#4990E2" sketch:type="MSTextLayer" font-family="Fira Sans OT" font-size="11" font-weight="bold" sketch:alignment="middle">
                <tspan x="292.357" y="832">Ship</tspan>
            </text>
            <text id="Definition" sketch:type="MSTextLayer" font-family="Fira Sans OT" font-size="14" font-weight="420" sketch:alignment="right" line-spacing="23" fill="#4990E2">
                <tspan x="0.126" y="226">Definition</tspan>
            </text>
            <text id="Execution" sketch:type="MSTextLayer" font-family="Fira Sans OT" font-size="14" font-weight="420" sketch:alignment="right" line-spacing="23" fill="#4990E2">
                <tspan x="0.476" y="626">Execution</tspan>
            </text>
        </g>
        <path d="M388.5,277 L631.5,277" id="Line" stroke="#D15500" stroke-width="2" stroke-linecap="square" sketch:type="MSShapeGroup"></path>
        <rect id="Rectangle-4" stroke="#D05500" stroke-width="2" fill="#FFFFFF" sketch:type="MSShapeGroup" x="632" y="261" width="112" height="30" rx="8"></rect>
        <text id="Current-Stage" sketch:type="MSTextLayer" font-family="Fira Sans OT" font-size="14" font-weight="420" sketch:alignment="middle" line-spacing="23" fill="#D05500">
            <tspan x="644" y="280">Current Stage</tspan>
        </text>
    </g>
</svg>